<svg  viewBox="0 0 20 32" fill="none" xmlns="http://www.w3.org/2000/svg">
<rect x="20" y="0.293213" width="4" height="4" transform="rotate(90 20 0.293213)" fill="#4BE1A4"/>
<rect x="16" y="4.29321" width="4" height="4" transform="rotate(90 16 4.29321)" fill="#4BE1A4"/>
<rect x="8" y="4.29321" width="4" height="4" transform="rotate(90 8 4.29321)" fill="#4BE1A4"/>
<rect x="12" y="0.293213" width="4" height="4" transform="rotate(90 12 0.293213)" fill="#4BE1A4"/>
<rect x="4" y="0.293213" width="4" height="4" transform="rotate(90 4 0.293213)" fill="#4BE1A4"/>
<rect x="20" y="8.29321" width="4" height="4" transform="rotate(90 20 8.29321)" fill="#4BE1A4"/>
<rect x="16" y="12.2932" width="4" height="4" transform="rotate(90 16 12.2932)" fill="#4BE1A4"/>
<rect x="8" y="12.2932" width="4" height="4" transform="rotate(90 8 12.2932)" fill="#4BE1A4"/>
<rect x="12" y="8.29321" width="4" height="4" transform="rotate(90 12 8.29321)" fill="#4BE1A4"/>
<rect x="4" y="8.29321" width="4" height="4" transform="rotate(90 4 8.29321)" fill="#4BE1A4"/>
<rect x="20" y="16.2932" width="4" height="4" transform="rotate(90 20 16.2932)" fill="#4BE1A4"/>
<rect x="16" y="20.2932" width="4" height="4" transform="rotate(90 16 20.2932)" fill="#4BE1A4"/>
<rect x="8" y="20.2932" width="4" height="4" transform="rotate(90 8 20.2932)" fill="#4BE1A4"/>
<rect x="12" y="16.2932" width="4" height="4" transform="rotate(90 12 16.2932)" fill="#4BE1A4"/>
<rect x="4" y="16.2932" width="4" height="4" transform="rotate(90 4 16.2932)" fill="#4BE1A4"/>
<rect x="20" y="24.2932" width="4" height="4" transform="rotate(90 20 24.2932)" fill="#4BE1A4"/>
<rect x="16" y="28.2932" width="4" height="4" transform="rotate(90 16 28.2932)" fill="#4BE1A4"/>
<rect x="8" y="28.2932" width="4" height="4" transform="rotate(90 8 28.2932)" fill="#4BE1A4"/>
<rect x="12" y="24.2932" width="4" height="4" transform="rotate(90 12 24.2932)" fill="#4BE1A4"/>
<rect x="4" y="24.2932" width="4" height="4" transform="rotate(90 4 24.2932)" fill="#4BE1A4"/>
<rect x="20" y="32.2932" width="4" height="4" transform="rotate(90 20 32.2932)" fill="#4BE1A4"/>
<rect x="12" y="32.2932" width="4" height="4" transform="rotate(90 12 32.2932)" fill="#4BE1A4"/>
<rect x="4" y="32.2932" width="4" height="4" transform="rotate(90 4 32.2932)" fill="#4BE1A4"/>
</svg>
